<svg width="76" height="76" viewBox="0 0 76 76" fill="none" xmlns="http://www.w3.org/2000/svg">
<rect width="76" height="75.5" rx="20" fill="#FFDD2D" fill-opacity="0.68"/>
<path d="M29.291 24.4062L28.5176 40.1211C28.377 43.0156 28.1074 45.0488 27.709 46.2207C27.3105 47.3926 26.5723 47.9785 25.4941 47.9785C25.2598 47.9785 25.043 47.9609 24.8438 47.9258C24.6445 47.8789 24.4219 47.8086 24.1758 47.7148V50.123C24.457 50.2285 24.7324 50.3047 25.002 50.3516C25.2832 50.3984 25.5527 50.4219 25.8105 50.4219C27.7793 50.4219 29.0977 49.6016 29.7656 47.9609C30.4336 46.3086 30.8496 43.8125 31.0137 40.4727L31.6992 26.6562H41.6484V50H44.3203V24.4062H29.291Z" fill="black"/>
</svg>
